<svg xmlns="http://www.w3.org/2000/svg" version="1.1" xmlns:xlink="http://www.w3.org/1999/xlink" xmlns:svgjs="http://svgjs.dev/svgjs" width="500" height="500" preserveAspectRatio="none" viewBox="0 0 500 500"><g mask="url(&quot;#SvgjsMask1194&quot;)" fill="none"><path d="M250 497.76C315.27 495.76 376.63 468.97 422.96 422.96 469.49 376.79 504.08 315.41 499.59 250 495.32 187.7 446.22 142.07 400.79 99.21 357.21 58.09 309.88 17.04 250 14.53 188.07 11.94 129.07 41.44 86.08 86.08 43.88 129.9 26.81 189.28 23.31 250 19.55 315.34 21.86 385.67 66.04 433.96 111.58 483.75 182.55 499.83 250 497.76" fill="rgba(2, 60, 115, 1)"></path><path d="M250 362.62C279.67 361.71 307.56 349.53 328.62 328.62 349.77 307.63 365.49 279.73 363.45 250 361.51 221.68 339.19 200.94 318.54 181.46 298.73 162.77 277.22 144.11 250 142.97 221.85 141.79 195.03 155.2 175.49 175.49 156.31 195.41 148.55 222.4 146.96 250 145.25 279.7 146.3 311.67 166.38 333.62 187.08 356.25 219.34 363.56 250 362.62" fill="rgba(2, 60, 115, 1)"></path></g><defs><mask id="SvgjsMask1194"><rect width="500" height="500" fill="#ffffff"></rect></mask></defs></svg>