<svg xmlns="http://www.w3.org/2000/svg" version="1.1" xmlns:xlink="http://www.w3.org/1999/xlink" xmlns:svgjs="http://svgjs.dev/svgjs" width="2500" height="300" preserveAspectRatio="none" viewBox="0 0 2500 300"><g mask="url(&quot;#SvgjsMask1014&quot;)" fill="none"><path d="M2625 300L0 300 L0 112.14Q77.86 65, 125 142.86Q200.78 10.31, 333.3333333333333 86.09Q455.98 0.4, 541.6666666666666 123.05Q594.28 50.67, 666.6666666666666 103.28Q758.35 -13.37, 875 78.31Q1002.96 -2.07, 1083.3333333333333 125.89Q1137 54.56, 1208.3333333333333 108.22Q1255.75 30.63, 1333.3333333333333 78.05Q1460.41 -3.21, 1541.6666666666665 123.87Q1609.52 66.73, 1666.6666666666665 134.58Q1712.17 55.09, 1791.6666666666665 100.59Q1848.71 32.64, 1916.6666666666665 89.68Q1990.54 38.55, 2041.6666666666665 112.42Q2082.6 28.36, 2166.6666666666665 69.29Q2245.59 23.21, 2291.6666666666665 102.13Q2387.83 -10.04, 2500 86.13Q2551.86 13, 2625 64.86z" fill="#182f5d"></path><path d="M2583.3333333333335 300L0 300 L0 166.92Q58.72 100.64, 125 159.36Q222.08 48.1, 333.3333333333333 145.18Q389.35 76.2, 458.3333333333333 132.21Q596.13 61.68, 666.6666666666666 199.48Q745.23 69.71, 875 148.27Q969.15 34.08, 1083.3333333333333 128.23Q1219.44 56.01, 1291.6666666666665 192.12Q1341.04 116.5, 1416.6666666666665 165.87Q1512.5 53.37, 1624.9999999999998 149.21Q1712.27 111.48, 1749.9999999999998 198.75Q1842.01 82.42, 1958.333333333333 174.43Q2068.38 76.15, 2166.6666666666665 186.2Q2275.92 87.12, 2375 196.38Q2444.13 57.18, 2583.3333333333335 126.31z" fill="#25467d"></path><path d="M2583.3333333333335 300L0 300 L0 195.79Q106.88 94.34, 208.33333333333331 201.22Q294.61 162.5, 333.3333333333333 248.78Q384.72 175.17, 458.3333333333333 226.55Q554.17 114.06, 666.6666666666666 209.9Q785.8 120.7, 875 239.84Q970.83 127.33, 1083.3333333333333 223.16Q1164.75 179.58, 1208.3333333333333 261Q1300.8 145.13, 1416.6666666666665 237.6Q1505.71 118.31, 1624.9999999999998 207.35Q1680.05 137.41, 1749.9999999999998 192.46Q1879.4 113.52, 1958.333333333333 242.92Q2052.88 129.13, 2166.6666666666665 223.67Q2263.65 112.32, 2375 209.31Q2501.78 127.75, 2583.3333333333335 254.53z" fill="#356cb1"></path><path d="M2625 300L0 300 L0 255.02Q95.24 225.26, 125 320.51Q179.9 250.41, 250 305.32Q338.57 185.56, 458.3333333333333 274.13Q510.95 201.75, 583.3333333333333 254.36Q714.78 177.47, 791.6666666666665 308.92Q889.39 198.31, 999.9999999999998 296.03Q1081.14 168.84, 1208.333333333333 249.98Q1288.6 205.25, 1333.333333333333 285.52Q1428.94 172.79, 1541.6666666666663 268.4Q1598.83 200.56, 1666.6666666666663 257.72Q1798.23 180.95, 1874.9999999999995 312.51Q1974 203.18, 2083.333333333333 302.18Q2177.49 188.01, 2291.6666666666665 282.17Q2414.18 196.35, 2500 318.86Q2534.13 227.99, 2625 262.11z" fill="rgba(91, 177, 255, 1)"></path></g><defs><mask id="SvgjsMask1014"><rect width="2500" height="300" fill="#ffffff"></rect></mask></defs></svg>