<svg xmlns="http://www.w3.org/2000/svg" version="1.1" xmlns:xlink="http://www.w3.org/1999/xlink" xmlns:svgjs="http://svgjs.dev/svgjs" width="1440" height="560" preserveAspectRatio="none" viewBox="0 0 1440 560"><g mask="url(&quot;#SvgjsMask1093&quot;)" fill="none"><rect width="1440" height="560" x="0" y="0" fill="rgba(0, 47, 99, 1)"></rect><use xlink:href="#SvgjsG1095" transform="translate(0, 0)" fill="rgba(0, 57, 123, 1)"></use><use xlink:href="#SvgjsG1095" transform="translate(0, 480)" fill="rgba(0, 57, 123, 1)"></use><use xlink:href="#SvgjsG1095" transform="translate(480, 0)" fill="rgba(0, 57, 123, 1)"></use><use xlink:href="#SvgjsG1095" transform="translate(480, 480)" fill="rgba(0, 57, 123, 1)"></use><use xlink:href="#SvgjsG1095" transform="translate(960, 0)" fill="rgba(0, 57, 123, 1)"></use><use xlink:href="#SvgjsG1095" transform="translate(960, 480)" fill="rgba(0, 57, 123, 1)"></use></g><defs><mask id="SvgjsMask1093"><rect width="1440" height="560" fill="#ffffff"></rect></mask><g id="SvgjsG1094"><path d="M15.02 9.49l-0.733-1.271-2.086 1.205L9.733 8l2.468-1.424 2.087 1.205 0.733-1.271-1.354-0.781 1.68-0.97-0.867-1.501-1.679 0.97v-1.563h-1.467v2.409L8.867 6.499V3.65l2.087-1.205-0.734-1.27L8.867 1.956V0.018h-1.734v1.939L5.78 1.175l-0.733 1.27 2.086 1.205V6.499L4.666 5.074V2.665h-1.466v1.562l-1.679-0.969-0.867 1.501 1.679 0.97-1.354 0.781 0.734 1.27 2.087-1.205L6.267 8 3.8 9.424l-2.087-1.205-0.733 1.271 1.353 0.781-1.679 0.969 0.867 1.502 1.679-0.97v1.564h1.466V10.925L7.133 9.501v2.849l-2.086 1.205 0.733 1.27 1.353-0.782v1.938h1.734v-1.938l1.353 0.782 0.733-1.27-2.086-1.205v-2.849L11.334 10.925v2.41h1.467V11.772l1.679 0.969 0.867-1.501-1.68-0.969z"></path><path d="M-12.034 8v7.981"></path><path d="M-12.034 12.696l2.586 1.493"></path><path d="M-12.034 8V0.018"></path><path d="M-12.034 3.304l-2.587-1.494m2.587 1.494l2.587-1.494m-2.587 10.886l-2.587 1.493"></path><path d="M-12.034 8L-18.947 11.991"></path><path d="M-16.101 10.348v2.988"></path><path d="M-12.034 8l6.912-3.991"></path><path d="M-7.967 5.652V2.665m0 2.987l2.587 1.493m-10.721 3.203l-2.587-1.493"></path><path d="M-12.034 8L-18.947 4.009"></path><path d="M-16.101 5.652l-2.587 1.493"></path><path d="M-12.034 8l6.912 3.991"></path><path d="M-7.967 10.348l2.587-1.493m-2.587 1.493v2.987m-8.134-7.683V2.665"></path></g><g id="SvgjsG1095"><use xlink:href="#SvgjsG1094" transform="translate(0, 0) scale(2)" fill="rgba(0, 57, 123, 1)"></use><use xlink:href="#SvgjsG1094" transform="translate(0, 48) scale(2)" fill="rgba(0, 57, 123, 1)"></use><use xlink:href="#SvgjsG1094" transform="translate(0, 96) scale(2)" fill="rgba(0, 57, 123, 1)"></use><use xlink:href="#SvgjsG1094" transform="translate(0, 144) scale(2)" fill="rgba(0, 57, 123, 1)"></use><use xlink:href="#SvgjsG1094" transform="translate(0, 192) scale(2)" fill="rgba(0, 57, 123, 1)"></use><use xlink:href="#SvgjsG1094" transform="translate(0, 240) scale(2)" fill="rgba(0, 57, 123, 1)"></use><use xlink:href="#SvgjsG1094" transform="translate(0, 288) scale(2)" fill="rgba(0, 57, 123, 1)"></use><use xlink:href="#SvgjsG1094" transform="translate(0, 336) scale(2)" fill="rgba(0, 57, 123, 1)"></use><use xlink:href="#SvgjsG1094" transform="translate(0, 384) scale(2)" fill="rgba(0, 57, 123, 1)"></use><use xlink:href="#SvgjsG1094" transform="translate(0, 432) scale(2)" fill="rgba(0, 57, 123, 1)"></use><use xlink:href="#SvgjsG1094" transform="translate(48, 0) scale(2)" fill="rgba(0, 57, 123, 1)"></use><use xlink:href="#SvgjsG1094" transform="translate(48, 48) scale(2)" fill="rgba(0, 57, 123, 1)"></use><use xlink:href="#SvgjsG1094" transform="translate(48, 96) scale(2)" fill="rgba(0, 57, 123, 1)"></use><use xlink:href="#SvgjsG1094" transform="translate(48, 144) scale(2)" fill="rgba(0, 57, 123, 1)"></use><use xlink:href="#SvgjsG1094" transform="translate(48, 192) scale(2)" fill="rgba(0, 57, 123, 1)"></use><use xlink:href="#SvgjsG1094" transform="translate(48, 240) scale(2)" fill="rgba(0, 57, 123, 1)"></use><use xlink:href="#SvgjsG1094" transform="translate(48, 288) scale(2)" fill="rgba(0, 57, 123, 1)"></use><use xlink:href="#SvgjsG1094" transform="translate(48, 336) scale(2)" fill="rgba(0, 57, 123, 1)"></use><use xlink:href="#SvgjsG1094" transform="translate(48, 384) scale(2)" fill="rgba(0, 57, 123, 1)"></use><use xlink:href="#SvgjsG1094" transform="translate(48, 432) scale(2)" fill="rgba(0, 57, 123, 1)"></use><use xlink:href="#SvgjsG1094" transform="translate(96, 0) scale(2)" fill="rgba(0, 57, 123, 1)"></use><use xlink:href="#SvgjsG1094" transform="translate(96, 48) scale(2)" fill="rgba(0, 57, 123, 1)"></use><use xlink:href="#SvgjsG1094" transform="translate(96, 96) scale(2)" fill="rgba(0, 57, 123, 1)"></use><use xlink:href="#SvgjsG1094" transform="translate(96, 144) scale(2)" fill="rgba(0, 57, 123, 1)"></use><use xlink:href="#SvgjsG1094" transform="translate(96, 192) scale(2)" fill="rgba(0, 57, 123, 1)"></use><use xlink:href="#SvgjsG1094" transform="translate(96, 240) scale(2)" fill="rgba(0, 57, 123, 1)"></use><use xlink:href="#SvgjsG1094" transform="translate(96, 288) scale(2)" fill="rgba(0, 57, 123, 1)"></use><use xlink:href="#SvgjsG1094" transform="translate(96, 336) scale(2)" fill="rgba(0, 57, 123, 1)"></use><use xlink:href="#SvgjsG1094" transform="translate(96, 384) scale(2)" fill="rgba(0, 57, 123, 1)"></use><use xlink:href="#SvgjsG1094" transform="translate(96, 432) scale(2)" fill="rgba(0, 57, 123, 1)"></use><use xlink:href="#SvgjsG1094" transform="translate(144, 0) scale(2)" fill="rgba(0, 57, 123, 1)"></use><use xlink:href="#SvgjsG1094" transform="translate(144, 48) scale(2)" fill="rgba(0, 57, 123, 1)"></use><use xlink:href="#SvgjsG1094" transform="translate(144, 96) scale(2)" fill="rgba(0, 57, 123, 1)"></use><use xlink:href="#SvgjsG1094" transform="translate(144, 144) scale(2)" fill="rgba(0, 57, 123, 1)"></use><use xlink:href="#SvgjsG1094" transform="translate(144, 192) scale(2)" fill="rgba(0, 57, 123, 1)"></use><use xlink:href="#SvgjsG1094" transform="translate(144, 240) scale(2)" fill="rgba(0, 57, 123, 1)"></use><use xlink:href="#SvgjsG1094" transform="translate(144, 288) scale(2)" fill="rgba(0, 57, 123, 1)"></use><use xlink:href="#SvgjsG1094" transform="translate(144, 336) scale(2)" fill="rgba(0, 57, 123, 1)"></use><use xlink:href="#SvgjsG1094" transform="translate(144, 384) scale(2)" fill="rgba(0, 57, 123, 1)"></use><use xlink:href="#SvgjsG1094" transform="translate(144, 432) scale(2)" fill="rgba(0, 57, 123, 1)"></use><use xlink:href="#SvgjsG1094" transform="translate(192, 0) scale(2)" fill="rgba(0, 57, 123, 1)"></use><use xlink:href="#SvgjsG1094" transform="translate(192, 48) scale(2)" fill="rgba(0, 57, 123, 1)"></use><use xlink:href="#SvgjsG1094" transform="translate(192, 96) scale(2)" fill="rgba(0, 57, 123, 1)"></use><use xlink:href="#SvgjsG1094" transform="translate(192, 144) scale(2)" fill="rgba(0, 57, 123, 1)"></use><use xlink:href="#SvgjsG1094" transform="translate(192, 192) scale(2)" fill="rgba(0, 57, 123, 1)"></use><use xlink:href="#SvgjsG1094" transform="translate(192, 240) scale(2)" fill="rgba(0, 57, 123, 1)"></use><use xlink:href="#SvgjsG1094" transform="translate(192, 288) scale(2)" fill="rgba(0, 57, 123, 1)"></use><use xlink:href="#SvgjsG1094" transform="translate(192, 336) scale(2)" fill="rgba(0, 57, 123, 1)"></use><use xlink:href="#SvgjsG1094" transform="translate(192, 384) scale(2)" fill="rgba(0, 57, 123, 1)"></use><use xlink:href="#SvgjsG1094" transform="translate(192, 432) scale(2)" fill="rgba(0, 57, 123, 1)"></use><use xlink:href="#SvgjsG1094" transform="translate(240, 0) scale(2)" fill="rgba(0, 57, 123, 1)"></use><use xlink:href="#SvgjsG1094" transform="translate(240, 48) scale(2)" fill="rgba(0, 57, 123, 1)"></use><use xlink:href="#SvgjsG1094" transform="translate(240, 96) scale(2)" fill="rgba(0, 57, 123, 1)"></use><use xlink:href="#SvgjsG1094" transform="translate(240, 144) scale(2)" fill="rgba(0, 57, 123, 1)"></use><use xlink:href="#SvgjsG1094" transform="translate(240, 192) scale(2)" fill="rgba(0, 57, 123, 1)"></use><use xlink:href="#SvgjsG1094" transform="translate(240, 240) scale(2)" fill="rgba(0, 57, 123, 1)"></use><use xlink:href="#SvgjsG1094" transform="translate(240, 288) scale(2)" fill="rgba(0, 57, 123, 1)"></use><use xlink:href="#SvgjsG1094" transform="translate(240, 336) scale(2)" fill="rgba(0, 57, 123, 1)"></use><use xlink:href="#SvgjsG1094" transform="translate(240, 384) scale(2)" fill="rgba(0, 57, 123, 1)"></use><use xlink:href="#SvgjsG1094" transform="translate(240, 432) scale(2)" fill="rgba(0, 57, 123, 1)"></use><use xlink:href="#SvgjsG1094" transform="translate(288, 0) scale(2)" fill="rgba(0, 57, 123, 1)"></use><use xlink:href="#SvgjsG1094" transform="translate(288, 48) scale(2)" fill="rgba(0, 57, 123, 1)"></use><use xlink:href="#SvgjsG1094" transform="translate(288, 96) scale(2)" fill="rgba(0, 57, 123, 1)"></use><use xlink:href="#SvgjsG1094" transform="translate(288, 144) scale(2)" fill="rgba(0, 57, 123, 1)"></use><use xlink:href="#SvgjsG1094" transform="translate(288, 192) scale(2)" fill="rgba(0, 57, 123, 1)"></use><use xlink:href="#SvgjsG1094" transform="translate(288, 240) scale(2)" fill="rgba(0, 57, 123, 1)"></use><use xlink:href="#SvgjsG1094" transform="translate(288, 288) scale(2)" fill="rgba(0, 57, 123, 1)"></use><use xlink:href="#SvgjsG1094" transform="translate(288, 336) scale(2)" fill="rgba(0, 57, 123, 1)"></use><use xlink:href="#SvgjsG1094" transform="translate(288, 384) scale(2)" fill="rgba(0, 57, 123, 1)"></use><use xlink:href="#SvgjsG1094" transform="translate(288, 432) scale(2)" fill="rgba(0, 57, 123, 1)"></use><use xlink:href="#SvgjsG1094" transform="translate(336, 0) scale(2)" fill="rgba(0, 57, 123, 1)"></use><use xlink:href="#SvgjsG1094" transform="translate(336, 48) scale(2)" fill="rgba(0, 57, 123, 1)"></use><use xlink:href="#SvgjsG1094" transform="translate(336, 96) scale(2)" fill="rgba(0, 57, 123, 1)"></use><use xlink:href="#SvgjsG1094" transform="translate(336, 144) scale(2)" fill="rgba(0, 57, 123, 1)"></use><use xlink:href="#SvgjsG1094" transform="translate(336, 192) scale(2)" fill="rgba(0, 57, 123, 1)"></use><use xlink:href="#SvgjsG1094" transform="translate(336, 240) scale(2)" fill="rgba(0, 57, 123, 1)"></use><use xlink:href="#SvgjsG1094" transform="translate(336, 288) scale(2)" fill="rgba(0, 57, 123, 1)"></use><use xlink:href="#SvgjsG1094" transform="translate(336, 336) scale(2)" fill="rgba(0, 57, 123, 1)"></use><use xlink:href="#SvgjsG1094" transform="translate(336, 384) scale(2)" fill="rgba(0, 57, 123, 1)"></use><use xlink:href="#SvgjsG1094" transform="translate(336, 432) scale(2)" fill="rgba(0, 57, 123, 1)"></use><use xlink:href="#SvgjsG1094" transform="translate(384, 0) scale(2)" fill="rgba(0, 57, 123, 1)"></use><use xlink:href="#SvgjsG1094" transform="translate(384, 48) scale(2)" fill="rgba(0, 57, 123, 1)"></use><use xlink:href="#SvgjsG1094" transform="translate(384, 96) scale(2)" fill="rgba(0, 57, 123, 1)"></use><use xlink:href="#SvgjsG1094" transform="translate(384, 144) scale(2)" fill="rgba(0, 57, 123, 1)"></use><use xlink:href="#SvgjsG1094" transform="translate(384, 192) scale(2)" fill="rgba(0, 57, 123, 1)"></use><use xlink:href="#SvgjsG1094" transform="translate(384, 240) scale(2)" fill="rgba(0, 57, 123, 1)"></use><use xlink:href="#SvgjsG1094" transform="translate(384, 288) scale(2)" fill="rgba(0, 57, 123, 1)"></use><use xlink:href="#SvgjsG1094" transform="translate(384, 336) scale(2)" fill="rgba(0, 57, 123, 1)"></use><use xlink:href="#SvgjsG1094" transform="translate(384, 384) scale(2)" fill="rgba(0, 57, 123, 1)"></use><use xlink:href="#SvgjsG1094" transform="translate(384, 432) scale(2)" fill="rgba(0, 57, 123, 1)"></use><use xlink:href="#SvgjsG1094" transform="translate(432, 0) scale(2)" fill="rgba(0, 57, 123, 1)"></use><use xlink:href="#SvgjsG1094" transform="translate(432, 48) scale(2)" fill="rgba(0, 57, 123, 1)"></use><use xlink:href="#SvgjsG1094" transform="translate(432, 96) scale(2)" fill="rgba(0, 57, 123, 1)"></use><use xlink:href="#SvgjsG1094" transform="translate(432, 144) scale(2)" fill="rgba(0, 57, 123, 1)"></use><use xlink:href="#SvgjsG1094" transform="translate(432, 192) scale(2)" fill="rgba(0, 57, 123, 1)"></use><use xlink:href="#SvgjsG1094" transform="translate(432, 240) scale(2)" fill="rgba(0, 57, 123, 1)"></use><use xlink:href="#SvgjsG1094" transform="translate(432, 288) scale(2)" fill="rgba(0, 57, 123, 1)"></use><use xlink:href="#SvgjsG1094" transform="translate(432, 336) scale(2)" fill="rgba(0, 57, 123, 1)"></use><use xlink:href="#SvgjsG1094" transform="translate(432, 384) scale(2)" fill="rgba(0, 57, 123, 1)"></use><use xlink:href="#SvgjsG1094" transform="translate(432, 432) scale(2)" fill="rgba(0, 57, 123, 1)"></use></g></defs></svg>