<svg xmlns="http://www.w3.org/2000/svg" version="1.1" xmlns:xlink="http://www.w3.org/1999/xlink" xmlns:svgjs="http://svgjs.dev/svgjs" width="1440" height="560" preserveAspectRatio="none" viewBox="0 0 1440 560">
    <g mask="url(&quot;#SvgjsMask1005&quot;)" fill="none">
        <rect width="1440" height="560" x="0" y="0" fill="rgba(255, 255, 255, 1)"></rect>
        <path d="M125.2 65.47L191.88 103.97L191.88 180.97L125.2 219.47L58.51 180.97L58.51 103.97zM191.88 411.97L258.57 450.47L258.57 527.47L191.88 565.97L125.2 527.47L125.2 450.47zM592 -50.03L658.68 -11.53L658.68 65.47L592 103.97L525.31 65.47L525.31 -11.53zM725.37 180.97L792.05 219.47L792.05 296.47L725.37 334.97L658.68 296.47L658.68 219.47zM792.05 296.47L858.74 334.97L858.74 411.97L792.05 450.47L725.37 411.97L725.37 334.97zM792.05 527.47L858.74 565.97L858.74 642.97L792.05 681.47L725.37 642.97L725.37 565.97zM925.43 296.47L992.11 334.97L992.11 411.97L925.43 450.47L858.74 411.97L858.74 334.97zM925.43 527.47L992.11 565.97L992.11 642.97L925.43 681.47L858.74 642.97L858.74 565.97zM1058.8 65.47L1125.48 103.97L1125.48 180.97L1058.8 219.47L992.11 180.97L992.11 103.97zM1058.8 527.47L1125.48 565.97L1125.48 642.97L1058.8 681.47L992.11 642.97L992.11 565.97zM1192.17 65.47L1258.86 103.97L1258.86 180.97L1192.17 219.47L1125.48 180.97L1125.48 103.97zM1325.54 296.47L1392.23 334.97L1392.23 411.97L1325.54 450.47L1258.86 411.97L1258.86 334.97zM1258.86 411.97L1325.54 450.47L1325.54 527.47L1258.86 565.97L1192.17 527.47L1192.17 450.47zM1392.23 180.97L1458.91 219.47L1458.91 296.47L1392.23 334.97L1325.54 296.47L1325.54 219.47zM1392.23 411.97L1458.91 450.47L1458.91 527.47L1392.23 565.97L1325.54 527.47L1325.54 450.47z" stroke="rgba(184, 212, 241, 0.09)" stroke-width="2"></path>
        <path d="M117.5 65.47 a7.7 7.7 0 1 0 15.4 0 a7.7 7.7 0 1 0 -15.4 0zM184.18 103.97 a7.7 7.7 0 1 0 15.4 0 a7.7 7.7 0 1 0 -15.4 0zM184.18 180.97 a7.7 7.7 0 1 0 15.4 0 a7.7 7.7 0 1 0 -15.4 0zM117.5 219.47 a7.7 7.7 0 1 0 15.4 0 a7.7 7.7 0 1 0 -15.4 0zM50.81 180.97 a7.7 7.7 0 1 0 15.4 0 a7.7 7.7 0 1 0 -15.4 0zM50.81 103.97 a7.7 7.7 0 1 0 15.4 0 a7.7 7.7 0 1 0 -15.4 0zM184.18 411.97 a7.7 7.7 0 1 0 15.4 0 a7.7 7.7 0 1 0 -15.4 0zM250.87 450.47 a7.7 7.7 0 1 0 15.4 0 a7.7 7.7 0 1 0 -15.4 0zM250.87 527.47 a7.7 7.7 0 1 0 15.4 0 a7.7 7.7 0 1 0 -15.4 0zM184.18 565.97 a7.7 7.7 0 1 0 15.4 0 a7.7 7.7 0 1 0 -15.4 0zM117.5 527.47 a7.7 7.7 0 1 0 15.4 0 a7.7 7.7 0 1 0 -15.4 0zM117.5 450.47 a7.7 7.7 0 1 0 15.4 0 a7.7 7.7 0 1 0 -15.4 0zM584.3 -50.03 a7.7 7.7 0 1 0 15.4 0 a7.7 7.7 0 1 0 -15.4 0zM650.98 -11.53 a7.7 7.7 0 1 0 15.4 0 a7.7 7.7 0 1 0 -15.4 0zM650.98 65.47 a7.7 7.7 0 1 0 15.4 0 a7.7 7.7 0 1 0 -15.4 0zM584.3 103.97 a7.7 7.7 0 1 0 15.4 0 a7.7 7.7 0 1 0 -15.4 0zM517.61 65.47 a7.7 7.7 0 1 0 15.4 0 a7.7 7.7 0 1 0 -15.4 0zM517.61 -11.53 a7.7 7.7 0 1 0 15.4 0 a7.7 7.7 0 1 0 -15.4 0zM717.67 180.97 a7.7 7.7 0 1 0 15.4 0 a7.7 7.7 0 1 0 -15.4 0zM784.35 219.47 a7.7 7.7 0 1 0 15.4 0 a7.7 7.7 0 1 0 -15.4 0zM784.35 296.47 a7.7 7.7 0 1 0 15.4 0 a7.7 7.7 0 1 0 -15.4 0zM717.67 334.97 a7.7 7.7 0 1 0 15.4 0 a7.7 7.7 0 1 0 -15.4 0zM650.98 296.47 a7.7 7.7 0 1 0 15.4 0 a7.7 7.7 0 1 0 -15.4 0zM650.98 219.47 a7.7 7.7 0 1 0 15.4 0 a7.7 7.7 0 1 0 -15.4 0zM851.04 334.97 a7.7 7.7 0 1 0 15.4 0 a7.7 7.7 0 1 0 -15.4 0zM851.04 411.97 a7.7 7.7 0 1 0 15.4 0 a7.7 7.7 0 1 0 -15.4 0zM784.35 450.47 a7.7 7.7 0 1 0 15.4 0 a7.7 7.7 0 1 0 -15.4 0zM717.67 411.97 a7.7 7.7 0 1 0 15.4 0 a7.7 7.7 0 1 0 -15.4 0zM784.35 527.47 a7.7 7.7 0 1 0 15.4 0 a7.7 7.7 0 1 0 -15.4 0zM851.04 565.97 a7.7 7.7 0 1 0 15.4 0 a7.7 7.7 0 1 0 -15.4 0zM851.04 642.97 a7.7 7.7 0 1 0 15.4 0 a7.7 7.7 0 1 0 -15.4 0zM784.35 681.47 a7.7 7.7 0 1 0 15.4 0 a7.7 7.7 0 1 0 -15.4 0zM717.67 642.97 a7.7 7.7 0 1 0 15.4 0 a7.7 7.7 0 1 0 -15.4 0zM717.67 565.97 a7.7 7.7 0 1 0 15.4 0 a7.7 7.7 0 1 0 -15.4 0zM917.73 296.47 a7.7 7.7 0 1 0 15.4 0 a7.7 7.7 0 1 0 -15.4 0zM984.41 334.97 a7.7 7.7 0 1 0 15.4 0 a7.7 7.7 0 1 0 -15.4 0zM984.41 411.97 a7.7 7.7 0 1 0 15.4 0 a7.7 7.7 0 1 0 -15.4 0zM917.73 450.47 a7.7 7.7 0 1 0 15.4 0 a7.7 7.7 0 1 0 -15.4 0zM917.73 527.47 a7.7 7.7 0 1 0 15.4 0 a7.7 7.7 0 1 0 -15.4 0zM984.41 565.97 a7.7 7.7 0 1 0 15.4 0 a7.7 7.7 0 1 0 -15.4 0zM984.41 642.97 a7.7 7.7 0 1 0 15.4 0 a7.7 7.7 0 1 0 -15.4 0zM917.73 681.47 a7.7 7.7 0 1 0 15.4 0 a7.7 7.7 0 1 0 -15.4 0zM1051.1 65.47 a7.7 7.7 0 1 0 15.4 0 a7.7 7.7 0 1 0 -15.4 0zM1117.78 103.97 a7.7 7.7 0 1 0 15.4 0 a7.7 7.7 0 1 0 -15.4 0zM1117.78 180.97 a7.7 7.7 0 1 0 15.4 0 a7.7 7.7 0 1 0 -15.4 0zM1051.1 219.47 a7.7 7.7 0 1 0 15.4 0 a7.7 7.7 0 1 0 -15.4 0zM984.41 180.97 a7.7 7.7 0 1 0 15.4 0 a7.7 7.7 0 1 0 -15.4 0zM984.41 103.97 a7.7 7.7 0 1 0 15.4 0 a7.7 7.7 0 1 0 -15.4 0zM1051.1 527.47 a7.7 7.7 0 1 0 15.4 0 a7.7 7.7 0 1 0 -15.4 0zM1117.78 565.97 a7.7 7.7 0 1 0 15.4 0 a7.7 7.7 0 1 0 -15.4 0zM1117.78 642.97 a7.7 7.7 0 1 0 15.4 0 a7.7 7.7 0 1 0 -15.4 0zM1051.1 681.47 a7.7 7.7 0 1 0 15.4 0 a7.7 7.7 0 1 0 -15.4 0zM1184.47 65.47 a7.7 7.7 0 1 0 15.4 0 a7.7 7.7 0 1 0 -15.4 0zM1251.16 103.97 a7.7 7.7 0 1 0 15.4 0 a7.7 7.7 0 1 0 -15.4 0zM1251.16 180.97 a7.7 7.7 0 1 0 15.4 0 a7.7 7.7 0 1 0 -15.4 0zM1184.47 219.47 a7.7 7.7 0 1 0 15.4 0 a7.7 7.7 0 1 0 -15.4 0zM1317.84 296.47 a7.7 7.7 0 1 0 15.4 0 a7.7 7.7 0 1 0 -15.4 0zM1384.53 334.97 a7.7 7.7 0 1 0 15.4 0 a7.7 7.7 0 1 0 -15.4 0zM1384.53 411.97 a7.7 7.7 0 1 0 15.4 0 a7.7 7.7 0 1 0 -15.4 0zM1317.84 450.47 a7.7 7.7 0 1 0 15.4 0 a7.7 7.7 0 1 0 -15.4 0zM1251.16 411.97 a7.7 7.7 0 1 0 15.4 0 a7.7 7.7 0 1 0 -15.4 0zM1251.16 334.97 a7.7 7.7 0 1 0 15.4 0 a7.7 7.7 0 1 0 -15.4 0zM1317.84 527.47 a7.7 7.7 0 1 0 15.4 0 a7.7 7.7 0 1 0 -15.4 0zM1251.16 565.97 a7.7 7.7 0 1 0 15.4 0 a7.7 7.7 0 1 0 -15.4 0zM1184.47 527.47 a7.7 7.7 0 1 0 15.4 0 a7.7 7.7 0 1 0 -15.4 0zM1184.47 450.47 a7.7 7.7 0 1 0 15.4 0 a7.7 7.7 0 1 0 -15.4 0zM1384.53 180.97 a7.7 7.7 0 1 0 15.4 0 a7.7 7.7 0 1 0 -15.4 0zM1451.21 219.47 a7.7 7.7 0 1 0 15.4 0 a7.7 7.7 0 1 0 -15.4 0zM1451.21 296.47 a7.7 7.7 0 1 0 15.4 0 a7.7 7.7 0 1 0 -15.4 0zM1317.84 219.47 a7.7 7.7 0 1 0 15.4 0 a7.7 7.7 0 1 0 -15.4 0zM1451.21 450.47 a7.7 7.7 0 1 0 15.4 0 a7.7 7.7 0 1 0 -15.4 0zM1451.21 527.47 a7.7 7.7 0 1 0 15.4 0 a7.7 7.7 0 1 0 -15.4 0zM1384.53 565.97 a7.7 7.7 0 1 0 15.4 0 a7.7 7.7 0 1 0 -15.4 0z" fill="rgba(184, 212, 241, 0.09)"></path>
        <path d="M189.02 463.88L282.56 517.88L282.56 625.88L189.02 679.88L95.49 625.88L95.49 517.88zM469.62 -22.12L563.16 31.88L563.16 139.88L469.62 193.88L376.09 139.88L376.09 31.88zM843.76 -22.12L937.29 31.88L937.29 139.88L843.76 193.88L750.22 139.88L750.22 31.88zM937.29 463.88L1030.82 517.88L1030.82 625.88L937.29 679.88L843.76 625.88L843.76 517.88zM1030.82 -22.12L1124.36 31.88L1124.36 139.88L1030.82 193.88L937.29 139.88L937.29 31.88zM1311.42 463.88L1404.96 517.88L1404.96 625.88L1311.42 679.88L1217.89 625.88L1217.89 517.88zM1498.49 463.88L1592.02 517.88L1592.02 625.88L1498.49 679.88L1404.96 625.88L1404.96 517.88z" stroke="rgba(84, 229, 255, 0.13)" stroke-width="2"></path>
    </g>
    <defs>
        <mask id="SvgjsMask1005">
            <rect width="1440" height="560" fill="#ffffff"></rect>
        </mask>
    </defs>
</svg>