<svg xmlns="http://www.w3.org/2000/svg" version="1.1" xmlns:xlink="http://www.w3.org/1999/xlink" xmlns:svgjs="http://svgjs.dev/svgjs" width="1440" height="560" preserveAspectRatio="none" viewBox="0 0 1440 560"><g mask="url(&quot;#SvgjsMask1236&quot;)" fill="none"><rect width="1440" height="560" x="0" y="0" fill="rgba(255, 255, 255, 1)"></rect><g mask="url(&quot;#SvgjsMask1238&quot;)"><path d="M300 300L324 324M732 324L756 300L780 300L804 300M444 324L468 300L492 300L516 300L540 300L564 300L588 300L612 300L636 300L660 300L684 300M396 324L420 300L444 300M372 324L396 300L420 276L444 276M204 300L228 300L252 300L276 276M252 324L276 324L300 324M180 300L204 276L228 276L252 252L276 252M348 300L372 300L396 276L420 252M-12 276L12 276L36 276L60 276L84 276L108 276L132 300L156 300L180 300L204 300L228 324L252 324L276 300L300 300L324 300L348 300L372 324L396 324L420 324L444 324L468 324L492 324L516 324L540 324L564 324L588 324L612 324L636 324L660 324L684 324L708 324L732 324L756 324L780 324L804 324L828 324L852 324L876 324L900 324" stroke="url(&quot;#SvgjsLinearGradient1237&quot;)" stroke-width="4"></path><path d="M894 324 a6 6 0 1 0 12 0 a6 6 0 1 0 -12 0zM318 324 a6 6 0 1 0 12 0 a6 6 0 1 0 -12 0zM798 300 a6 6 0 1 0 12 0 a6 6 0 1 0 -12 0zM678 300 a6 6 0 1 0 12 0 a6 6 0 1 0 -12 0zM438 300 a6 6 0 1 0 12 0 a6 6 0 1 0 -12 0zM438 276 a6 6 0 1 0 12 0 a6 6 0 1 0 -12 0zM270 276 a6 6 0 1 0 12 0 a6 6 0 1 0 -12 0zM294 324 a6 6 0 1 0 12 0 a6 6 0 1 0 -12 0zM270 252 a6 6 0 1 0 12 0 a6 6 0 1 0 -12 0zM414 252 a6 6 0 1 0 12 0 a6 6 0 1 0 -12 0z" fill="url(&quot;#SvgjsLinearGradient1237&quot;)"></path><path d="M780 348L804 372L828 372L852 372L876 372L900 396L924 396M60 300L84 324L108 324M492 348L516 372M564 348L588 372L612 372L636 372L660 372L684 372L708 372L732 372L756 372M420 348L444 372M468 348L492 372L516 396L540 396L564 396L588 396L612 396L636 396L660 396L684 396L708 396L732 396L756 396M540 348L564 372M-12 300L12 300L36 300L60 300L84 300L108 300L132 324L156 324L180 324L204 324L228 348L252 348L276 348L300 348L324 348L348 348L372 348L396 348L420 348L444 348L468 348L492 348L516 348L540 348L564 348L588 348L612 348L636 348L660 348L684 348L708 348L732 348L756 348L780 348L804 348L828 348" stroke="url(&quot;#SvgjsLinearGradient1237&quot;)" stroke-width="4"></path><path d="M822 348 a6 6 0 1 0 12 0 a6 6 0 1 0 -12 0zM918 396 a6 6 0 1 0 12 0 a6 6 0 1 0 -12 0zM102 324 a6 6 0 1 0 12 0 a6 6 0 1 0 -12 0zM510 372 a6 6 0 1 0 12 0 a6 6 0 1 0 -12 0zM750 372 a6 6 0 1 0 12 0 a6 6 0 1 0 -12 0zM438 372 a6 6 0 1 0 12 0 a6 6 0 1 0 -12 0zM750 396 a6 6 0 1 0 12 0 a6 6 0 1 0 -12 0zM558 372 a6 6 0 1 0 12 0 a6 6 0 1 0 -12 0z" fill="url(&quot;#SvgjsLinearGradient1237&quot;)"></path><path d="M372 204L396 228L420 228L444 228L468 228M204 228L228 252M180 228L204 252M420 204L444 180L468 180M300 228L324 252M-12 252L12 252L36 252L60 252L84 252L108 252L132 252L156 228L180 228L204 228L228 228L252 228L276 228L300 228L324 228L348 204L372 204L396 204L420 204L444 204L468 204" stroke="url(&quot;#SvgjsLinearGradient1237&quot;)" stroke-width="4"></path><path d="M462 204 a6 6 0 1 0 12 0 a6 6 0 1 0 -12 0zM462 228 a6 6 0 1 0 12 0 a6 6 0 1 0 -12 0zM222 252 a6 6 0 1 0 12 0 a6 6 0 1 0 -12 0zM198 252 a6 6 0 1 0 12 0 a6 6 0 1 0 -12 0zM462 180 a6 6 0 1 0 12 0 a6 6 0 1 0 -12 0zM318 252 a6 6 0 1 0 12 0 a6 6 0 1 0 -12 0z" fill="url(&quot;#SvgjsLinearGradient1237&quot;)"></path><path d="M156 348L180 372L204 372M36 324L60 324M-12 324L12 324L36 324L60 348L84 348L108 348L132 348L156 348L180 348L204 348L228 372L252 372L276 372L300 372L324 372L348 372L372 372L396 372" stroke="url(&quot;#SvgjsLinearGradient1237&quot;)" stroke-width="4"></path><path d="M390 372 a6 6 0 1 0 12 0 a6 6 0 1 0 -12 0zM198 372 a6 6 0 1 0 12 0 a6 6 0 1 0 -12 0zM54 324 a6 6 0 1 0 12 0 a6 6 0 1 0 -12 0z" fill="url(&quot;#SvgjsLinearGradient1237&quot;)"></path><path d="M516 132L540 156L564 156L588 156L612 156L636 180L660 180M396 180L420 180M420 156L444 132M348 180L372 156L396 156L420 132L444 108L468 108M468 156L492 156L516 180M540 132L564 108L588 108L612 84L636 84L660 84L684 84L708 84L732 84L756 84L780 84L804 84M-12 228L12 228L36 228L60 228L84 228L108 228L132 204L156 204L180 204L204 204L228 204L252 204L276 204L300 204L324 204L348 180L372 180L396 180L420 156L444 156L468 156L492 132L516 132L540 132L564 132L588 132L612 132" stroke="url(&quot;#SvgjsLinearGradient1237&quot;)" stroke-width="4"></path><path d="M606 132 a6 6 0 1 0 12 0 a6 6 0 1 0 -12 0zM654 180 a6 6 0 1 0 12 0 a6 6 0 1 0 -12 0zM414 180 a6 6 0 1 0 12 0 a6 6 0 1 0 -12 0zM438 132 a6 6 0 1 0 12 0 a6 6 0 1 0 -12 0zM462 108 a6 6 0 1 0 12 0 a6 6 0 1 0 -12 0zM510 180 a6 6 0 1 0 12 0 a6 6 0 1 0 -12 0zM798 84 a6 6 0 1 0 12 0 a6 6 0 1 0 -12 0z" fill="url(&quot;#SvgjsLinearGradient1237&quot;)"></path><path d="M444 396L468 420M252 396L276 420L300 420L324 420M372 396L396 420L420 420L444 420M228 396L252 420M348 396L372 420M132 372L156 372M468 396L492 396M-12 348L12 348L36 348L60 372L84 372L108 372L132 372L156 396L180 396L204 396L228 396L252 396L276 396L300 396L324 396L348 396L372 396L396 396L420 396L444 396L468 396L492 420L516 420L540 420L564 420L588 420L612 420L636 420L660 420" stroke="url(&quot;#SvgjsLinearGradient1237&quot;)" stroke-width="4"></path><path d="M654 420 a6 6 0 1 0 12 0 a6 6 0 1 0 -12 0zM462 420 a6 6 0 1 0 12 0 a6 6 0 1 0 -12 0zM318 420 a6 6 0 1 0 12 0 a6 6 0 1 0 -12 0zM438 420 a6 6 0 1 0 12 0 a6 6 0 1 0 -12 0zM246 420 a6 6 0 1 0 12 0 a6 6 0 1 0 -12 0zM366 420 a6 6 0 1 0 12 0 a6 6 0 1 0 -12 0zM150 372 a6 6 0 1 0 12 0 a6 6 0 1 0 -12 0zM486 396 a6 6 0 1 0 12 0 a6 6 0 1 0 -12 0z" fill="url(&quot;#SvgjsLinearGradient1237&quot;)"></path><path d="M180 180L204 156L228 156L252 156M300 180L324 156L348 156L372 132M276 180L300 156M-12 204L12 204L36 204L60 204L84 204L108 204L132 180L156 180L180 180L204 180L228 180L252 180L276 180L300 180L324 180" stroke="url(&quot;#SvgjsLinearGradient1237&quot;)" stroke-width="4"></path><path d="M318 180 a6 6 0 1 0 12 0 a6 6 0 1 0 -12 0zM246 156 a6 6 0 1 0 12 0 a6 6 0 1 0 -12 0zM366 132 a6 6 0 1 0 12 0 a6 6 0 1 0 -12 0zM294 156 a6 6 0 1 0 12 0 a6 6 0 1 0 -12 0z" fill="url(&quot;#SvgjsLinearGradient1237&quot;)"></path><path d="M204 420L228 420M660 444L684 444L708 444L732 444M756 444L780 420L804 420M108 396L132 420M84 396L108 420M732 420L756 420M-12 372L12 372L36 372L60 396L84 396L108 396L132 396L156 420L180 420L204 420L228 444L252 444L276 444L300 444L324 444L348 444L372 444L396 444L420 444L444 444L468 444L492 444L516 444L540 444L564 444L588 444L612 444L636 444L660 444L684 420L708 420L732 420L756 444L780 444L804 444L828 444" stroke="url(&quot;#SvgjsLinearGradient1237&quot;)" stroke-width="4"></path><path d="M822 444 a6 6 0 1 0 12 0 a6 6 0 1 0 -12 0zM222 420 a6 6 0 1 0 12 0 a6 6 0 1 0 -12 0zM726 444 a6 6 0 1 0 12 0 a6 6 0 1 0 -12 0zM798 420 a6 6 0 1 0 12 0 a6 6 0 1 0 -12 0zM126 420 a6 6 0 1 0 12 0 a6 6 0 1 0 -12 0zM102 420 a6 6 0 1 0 12 0 a6 6 0 1 0 -12 0zM750 420 a6 6 0 1 0 12 0 a6 6 0 1 0 -12 0z" fill="url(&quot;#SvgjsLinearGradient1237&quot;)"></path><path d="M-12 180L12 180L36 180L60 180L84 180L108 180L132 156L156 156" stroke="url(&quot;#SvgjsLinearGradient1237&quot;)" stroke-width="4"></path><path d="M150 156 a6 6 0 1 0 12 0 a6 6 0 1 0 -12 0z" fill="url(&quot;#SvgjsLinearGradient1237&quot;)"></path><path d="M660 468L684 492L708 492L732 516L756 516L780 516L804 516L828 516L852 516L876 516L900 516M84 444L108 468L132 468M828 468L852 492L876 492L900 492M492 468L516 492L540 492L564 492L588 492L612 492L636 492M996 492L1020 468M948 492L972 468M804 468L828 492M348 468L372 492M324 468L348 492L372 516L396 516L420 516L444 516L468 516L492 516L516 516L540 516L564 516L588 516L612 516L636 516L660 516L684 516L708 516M252 468L276 492L300 492L324 492L348 516M444 468L468 492M-12 396L12 396L36 396L60 420L84 444L108 444L132 444L156 444L180 444L204 444L228 468L252 468L276 468L300 468L324 468L348 468L372 468L396 468L420 468L444 468L468 468L492 468L516 468L540 468L564 468L588 468L612 468L636 468L660 468L684 468L708 468L732 468L756 468L780 468L804 468L828 468L852 468L876 468L900 468L924 492L948 492L972 492L996 492L1020 492" stroke="url(&quot;#SvgjsLinearGradient1237&quot;)" stroke-width="4"></path><path d="M1014 492 a6 6 0 1 0 12 0 a6 6 0 1 0 -12 0zM894 516 a6 6 0 1 0 12 0 a6 6 0 1 0 -12 0zM126 468 a6 6 0 1 0 12 0 a6 6 0 1 0 -12 0zM894 492 a6 6 0 1 0 12 0 a6 6 0 1 0 -12 0zM630 492 a6 6 0 1 0 12 0 a6 6 0 1 0 -12 0zM1014 468 a6 6 0 1 0 12 0 a6 6 0 1 0 -12 0zM966 468 a6 6 0 1 0 12 0 a6 6 0 1 0 -12 0zM822 492 a6 6 0 1 0 12 0 a6 6 0 1 0 -12 0zM366 492 a6 6 0 1 0 12 0 a6 6 0 1 0 -12 0zM702 516 a6 6 0 1 0 12 0 a6 6 0 1 0 -12 0zM342 516 a6 6 0 1 0 12 0 a6 6 0 1 0 -12 0zM462 492 a6 6 0 1 0 12 0 a6 6 0 1 0 -12 0z" fill="url(&quot;#SvgjsLinearGradient1237&quot;)"></path><path d="M36 156L60 132L84 132M204 132L228 108M180 132L204 108M-12 156L12 156L36 156L60 156L84 156L108 156L132 132L156 132L180 132L204 132L228 132L252 132L276 132L300 132" stroke="url(&quot;#SvgjsLinearGradient1237&quot;)" stroke-width="4"></path><path d="M294 132 a6 6 0 1 0 12 0 a6 6 0 1 0 -12 0zM78 132 a6 6 0 1 0 12 0 a6 6 0 1 0 -12 0zM222 108 a6 6 0 1 0 12 0 a6 6 0 1 0 -12 0zM198 108 a6 6 0 1 0 12 0 a6 6 0 1 0 -12 0z" fill="url(&quot;#SvgjsLinearGradient1237&quot;)"></path></g></g><defs><mask id="SvgjsMask1236"><rect width="1440" height="560" fill="#ffffff"></rect></mask><linearGradient x1="1065.6" y1="280" x2="0" y2="280" gradientUnits="userSpaceOnUse" id="SvgjsLinearGradient1237"><stop stop-color="rgba(58, 124, 195, 1)" offset="0.41"></stop><stop stop-color="rgba(221, 17, 51, 1)" offset="1"></stop></linearGradient><mask id="SvgjsMask1238"><rect width="1440" height="560" fill="white"></rect><path d="M897 324 a3 3 0 1 0 6 0 a3 3 0 1 0 -6 0zM321 324 a3 3 0 1 0 6 0 a3 3 0 1 0 -6 0zM801 300 a3 3 0 1 0 6 0 a3 3 0 1 0 -6 0zM681 300 a3 3 0 1 0 6 0 a3 3 0 1 0 -6 0zM441 300 a3 3 0 1 0 6 0 a3 3 0 1 0 -6 0zM441 276 a3 3 0 1 0 6 0 a3 3 0 1 0 -6 0zM273 276 a3 3 0 1 0 6 0 a3 3 0 1 0 -6 0zM297 324 a3 3 0 1 0 6 0 a3 3 0 1 0 -6 0zM273 252 a3 3 0 1 0 6 0 a3 3 0 1 0 -6 0zM417 252 a3 3 0 1 0 6 0 a3 3 0 1 0 -6 0z" fill="black"></path><path d="M825 348 a3 3 0 1 0 6 0 a3 3 0 1 0 -6 0zM921 396 a3 3 0 1 0 6 0 a3 3 0 1 0 -6 0zM105 324 a3 3 0 1 0 6 0 a3 3 0 1 0 -6 0zM513 372 a3 3 0 1 0 6 0 a3 3 0 1 0 -6 0zM753 372 a3 3 0 1 0 6 0 a3 3 0 1 0 -6 0zM441 372 a3 3 0 1 0 6 0 a3 3 0 1 0 -6 0zM753 396 a3 3 0 1 0 6 0 a3 3 0 1 0 -6 0zM561 372 a3 3 0 1 0 6 0 a3 3 0 1 0 -6 0z" fill="black"></path><path d="M465 204 a3 3 0 1 0 6 0 a3 3 0 1 0 -6 0zM465 228 a3 3 0 1 0 6 0 a3 3 0 1 0 -6 0zM225 252 a3 3 0 1 0 6 0 a3 3 0 1 0 -6 0zM201 252 a3 3 0 1 0 6 0 a3 3 0 1 0 -6 0zM465 180 a3 3 0 1 0 6 0 a3 3 0 1 0 -6 0zM321 252 a3 3 0 1 0 6 0 a3 3 0 1 0 -6 0z" fill="black"></path><path d="M393 372 a3 3 0 1 0 6 0 a3 3 0 1 0 -6 0zM201 372 a3 3 0 1 0 6 0 a3 3 0 1 0 -6 0zM57 324 a3 3 0 1 0 6 0 a3 3 0 1 0 -6 0z" fill="black"></path><path d="M609 132 a3 3 0 1 0 6 0 a3 3 0 1 0 -6 0zM657 180 a3 3 0 1 0 6 0 a3 3 0 1 0 -6 0zM417 180 a3 3 0 1 0 6 0 a3 3 0 1 0 -6 0zM441 132 a3 3 0 1 0 6 0 a3 3 0 1 0 -6 0zM465 108 a3 3 0 1 0 6 0 a3 3 0 1 0 -6 0zM513 180 a3 3 0 1 0 6 0 a3 3 0 1 0 -6 0zM801 84 a3 3 0 1 0 6 0 a3 3 0 1 0 -6 0z" fill="black"></path><path d="M657 420 a3 3 0 1 0 6 0 a3 3 0 1 0 -6 0zM465 420 a3 3 0 1 0 6 0 a3 3 0 1 0 -6 0zM321 420 a3 3 0 1 0 6 0 a3 3 0 1 0 -6 0zM441 420 a3 3 0 1 0 6 0 a3 3 0 1 0 -6 0zM249 420 a3 3 0 1 0 6 0 a3 3 0 1 0 -6 0zM369 420 a3 3 0 1 0 6 0 a3 3 0 1 0 -6 0zM153 372 a3 3 0 1 0 6 0 a3 3 0 1 0 -6 0zM489 396 a3 3 0 1 0 6 0 a3 3 0 1 0 -6 0z" fill="black"></path><path d="M321 180 a3 3 0 1 0 6 0 a3 3 0 1 0 -6 0zM249 156 a3 3 0 1 0 6 0 a3 3 0 1 0 -6 0zM369 132 a3 3 0 1 0 6 0 a3 3 0 1 0 -6 0zM297 156 a3 3 0 1 0 6 0 a3 3 0 1 0 -6 0z" fill="black"></path><path d="M825 444 a3 3 0 1 0 6 0 a3 3 0 1 0 -6 0zM225 420 a3 3 0 1 0 6 0 a3 3 0 1 0 -6 0zM729 444 a3 3 0 1 0 6 0 a3 3 0 1 0 -6 0zM801 420 a3 3 0 1 0 6 0 a3 3 0 1 0 -6 0zM129 420 a3 3 0 1 0 6 0 a3 3 0 1 0 -6 0zM105 420 a3 3 0 1 0 6 0 a3 3 0 1 0 -6 0zM753 420 a3 3 0 1 0 6 0 a3 3 0 1 0 -6 0z" fill="black"></path><path d="M153 156 a3 3 0 1 0 6 0 a3 3 0 1 0 -6 0z" fill="black"></path><path d="M1017 492 a3 3 0 1 0 6 0 a3 3 0 1 0 -6 0zM897 516 a3 3 0 1 0 6 0 a3 3 0 1 0 -6 0zM129 468 a3 3 0 1 0 6 0 a3 3 0 1 0 -6 0zM897 492 a3 3 0 1 0 6 0 a3 3 0 1 0 -6 0zM633 492 a3 3 0 1 0 6 0 a3 3 0 1 0 -6 0zM1017 468 a3 3 0 1 0 6 0 a3 3 0 1 0 -6 0zM969 468 a3 3 0 1 0 6 0 a3 3 0 1 0 -6 0zM825 492 a3 3 0 1 0 6 0 a3 3 0 1 0 -6 0zM369 492 a3 3 0 1 0 6 0 a3 3 0 1 0 -6 0zM705 516 a3 3 0 1 0 6 0 a3 3 0 1 0 -6 0zM345 516 a3 3 0 1 0 6 0 a3 3 0 1 0 -6 0zM465 492 a3 3 0 1 0 6 0 a3 3 0 1 0 -6 0z" fill="black"></path><path d="M297 132 a3 3 0 1 0 6 0 a3 3 0 1 0 -6 0zM81 132 a3 3 0 1 0 6 0 a3 3 0 1 0 -6 0zM225 108 a3 3 0 1 0 6 0 a3 3 0 1 0 -6 0zM201 108 a3 3 0 1 0 6 0 a3 3 0 1 0 -6 0z" fill="black"></path></mask></defs></svg>